# xmcd
#
# Track frame offsets:
#	150
#	15035
#	26707
#	36785
#	46499
#	55932
#	64347
#	77307
#	89947
#	100248
#
# Disc length: 1433 seconds
#
# Revision: 0
# Processed by: cddbd v1.5.1PL0 Copyright (c) Steve Scherf et al.
# Submitted via: dBpowerAMP V4.0
#
DISCID=7805970a
DTITLE=Merle Haggard and The Strangers - Getting To Know The Strangers
DYEAR=1970
DGENRE=Country
TTITLE0=Caravan
TTITLE1=Ham Boogie
TTITLE2=Story With A Happy Indian
TTITLE3=Walkin' Through My Heart
TTITLE4=Happy Day
TTITLE5=Scramble
TTITLE6=Every Fool Has A Rainbow
TTITLE7=California On My Mind
TTITLE8=Comin' Home
TTITLE9=Skippin'
EXTD=+Sound Man+
EXTT0=
EXTT1=
EXTT2=
EXTT3=
EXTT4=
EXTT5=
EXTT6=
EXTT7=
EXTT8=
EXTT9=
PLAYORDER=
